<svg width="30" height="30" viewBox="0 0 30 30" fill="none" xmlns="http://www.w3.org/2000/svg">
<g opacity="1">
<path d="M1.78935 0.989746H0.6875V29.9351H1.78935V0.989746Z" fill="white"/>
<path d="M4.87334 0.989746H3.77148V29.9351H4.87334V0.989746Z" fill="white"/>
<path d="M7.95732 0.989746H6.85547V29.9351H7.95732V0.989746Z" fill="white"/>
<path d="M11.0394 0.989746H9.9375V29.9351H11.0394V0.989746Z" fill="white"/>
<path d="M14.1233 0.989746H13.0215V29.9351H14.1233V0.989746Z" fill="white"/>
<path d="M17.2073 0.989746H16.1055V29.9351H17.2073V0.989746Z" fill="white"/>
<path d="M20.2913 0.989746H19.1895V29.9351H20.2913V0.989746Z" fill="white"/>
<path d="M23.3753 0.989746H22.2734V29.9351H23.3753V0.989746Z" fill="white"/>
<path d="M26.4573 0.989746H25.3555V29.9351H26.4573V0.989746Z" fill="white"/>
<path d="M29.5413 0.989746H28.4395V29.9351H29.5413V0.989746Z" fill="white"/>
</g>
</svg>
