<svg width="120" height="100" viewBox="0 0 120 100" fill="none" xmlns="http://www.w3.org/2000/svg">
<g clip-path="url(#clip0_96_476)">
<mask id="mask0_96_476" style="mask-type:luminance" maskUnits="userSpaceOnUse" x="0" y="0" width="120" height="100">
<path d="M0.00976562 49.7965C0.00976562 20.2347 10.9973 0.110352 34.7831 0.110352C58.5689 0.110352 69.4177 20.2347 69.4177 49.7965C69.4177 79.3583 58.5689 99.7612 34.7831 99.7612C10.9973 99.7612 0.00976562 79.6369 0.00976562 49.7965ZM34.7831 86.7141C49.5269 86.7141 55.09 71.0299 55.09 49.7965C55.09 28.563 49.3863 13.1556 34.7831 13.1556C20.1799 13.1556 14.3356 28.6996 14.3356 49.7965C14.3356 70.8933 19.8987 86.7141 34.7831 86.7141ZM105.861 18.4298L89.3085 33.0031H79.4325V17.5976H87.0818L105.721 1.3597H119.908V98.5137H105.859V18.4317L105.861 18.4298Z" fill="white"/>
</mask>
<g mask="url(#mask0_96_476)">
<path d="M11.4766 -30.04H11.8557V139.829L11.4766 139.86V-30.04Z" fill="#BFBFBF"/>
<path d="M10.2246 -30.04H10.6037V139.829L10.2246 139.86V-30.04Z" fill="#BFBFBF"/>
<path d="M8.97266 -30.04H9.35179V139.829L8.97266 139.86V-30.04Z" fill="#BFBFBF"/>
<path d="M7.7207 -30.04H8.09984V139.829L7.7207 139.86V-30.04Z" fill="#BFBFBF"/>
<path d="M6.46875 -30.04H6.84789V139.829L6.46875 139.86V-30.04Z" fill="#BFBFBF"/>
<path d="M5.2168 -30.04H5.59593V139.829L5.2168 139.86V-30.04Z" fill="#BFBFBF"/>
<path d="M3.96484 -30.04H4.34398V139.829L3.96484 139.86V-30.04Z" fill="#BFBFBF"/>
<path d="M2.71094 -30.04H3.09007V139.829L2.71094 139.86V-30.04Z" fill="#BFBFBF"/>
<path d="M1.45898 -30.04H1.83812V139.829L1.45898 139.86V-30.04Z" fill="#BFBFBF"/>
<path d="M0.207031 -30.04H0.586169V139.829L0.207031 139.86V-30.04Z" fill="#BFBFBF"/>
<path d="M51.5527 -30.04H51.9319V139.829L51.5527 139.86V-30.04Z" fill="#BFBFBF"/>
<path d="M50.3008 -30.04H50.6799V139.829L50.3008 139.86V-30.04Z" fill="#BFBFBF"/>
<path d="M49.0488 -30.04H49.428V139.829L49.0488 139.86V-30.04Z" fill="#BFBFBF"/>
<path d="M47.7949 -30.04H48.1741V139.829L47.7949 139.86V-30.04Z" fill="#BFBFBF"/>
<path d="M46.543 -30.04H46.9221V139.829L46.543 139.86V-30.04Z" fill="#BFBFBF"/>
<path d="M45.291 -30.04H45.6702V139.829L45.291 139.86V-30.04Z" fill="#BFBFBF"/>
<path d="M44.0391 -30.04H44.4182V139.829L44.0391 139.86V-30.04Z" fill="#BFBFBF"/>
<path d="M42.7871 -30.04H43.1662V139.829L42.7871 139.86V-30.04Z" fill="#BFBFBF"/>
<path d="M41.5352 -30.04H41.9143V139.829L41.5352 139.86V-30.04Z" fill="#BFBFBF"/>
<path d="M40.2832 -30.04H40.6623V139.829L40.2832 139.86V-30.04Z" fill="#BFBFBF"/>
<path d="M39.0312 -30.04H39.4104V139.829L39.0312 139.86V-30.04Z" fill="#BFBFBF"/>
<path d="M37.7773 -30.04H38.1565V139.829L37.7773 139.86V-30.04Z" fill="#BFBFBF"/>
<path d="M36.5254 -30.04H36.9045V139.829L36.5254 139.86V-30.04Z" fill="#BFBFBF"/>
<path d="M35.2715 -30.04H35.6506V139.829L35.2715 139.86V-30.04Z" fill="#BFBFBF"/>
<path d="M34.0195 -30.04H34.3987V139.829L34.0195 139.86V-30.04Z" fill="#BFBFBF"/>
<path d="M32.7676 -30.04H33.1467V139.829L32.7676 139.86V-30.04Z" fill="#BFBFBF"/>
<path d="M31.5156 -30.04H31.8948V139.829L31.5156 139.86V-30.04Z" fill="#BFBFBF"/>
<path d="M30.2637 -30.04H30.6428V139.829L30.2637 139.86V-30.04Z" fill="#BFBFBF"/>
<path d="M29.0098 -30.04H29.3889V139.829L29.0098 139.86V-30.04Z" fill="#BFBFBF"/>
<path d="M27.7578 -30.04H28.1369V139.829L27.7578 139.86V-30.04Z" fill="#BFBFBF"/>
<path d="M26.5059 -30.04H26.885V139.829L26.5059 139.86V-30.04Z" fill="#BFBFBF"/>
<path d="M25.2539 -30.04H25.633V139.829L25.2539 139.86V-30.04Z" fill="#BFBFBF"/>
<path d="M24.002 -30.04H24.3811V139.829L24.002 139.86V-30.04Z" fill="#BFBFBF"/>
<path d="M22.75 -30.04H23.1291V139.829L22.75 139.86V-30.04Z" fill="#BFBFBF"/>
<path d="M21.498 -30.04H21.8772V139.829L21.498 139.86V-30.04Z" fill="#BFBFBF"/>
<path d="M20.2441 -30.04H20.6233V139.829L20.2441 139.86V-30.04Z" fill="#BFBFBF"/>
<path d="M18.9922 -30.04H19.3713V139.829L18.9922 139.86V-30.04Z" fill="#BFBFBF"/>
<path d="M17.7402 -30.04H18.1194V139.829L17.7402 139.86V-30.04Z" fill="#BFBFBF"/>
<path d="M16.4883 -30.04H16.8674V139.829L16.4883 139.86V-30.04Z" fill="#BFBFBF"/>
<path d="M15.2363 -30.04H15.6155V139.829L15.2363 139.86V-30.04Z" fill="#BFBFBF"/>
<path d="M13.9824 -30.04H14.3616V139.829L13.9824 139.86V-30.04Z" fill="#BFBFBF"/>
<path d="M12.7305 -30.04H13.1096V139.829L12.7305 139.86V-30.04Z" fill="#BFBFBF"/>
<path d="M91.627 -30.04H92.0061V139.829L91.627 139.86V-30.04Z" fill="#BFBFBF"/>
<path d="M90.375 -30.04H90.7541V139.829L90.375 139.86V-30.04Z" fill="#BFBFBF"/>
<path d="M89.123 -30.04H89.5022V139.829L89.123 139.86V-30.04Z" fill="#BFBFBF"/>
<path d="M87.8711 -30.04H88.2502V139.829L87.8711 139.86V-30.04Z" fill="#BFBFBF"/>
<path d="M86.6191 -30.04H86.9983V139.829L86.6191 139.86V-30.04Z" fill="#BFBFBF"/>
<path d="M85.3672 -30.04H85.7463V139.829L85.3672 139.86V-30.04Z" fill="#BFBFBF"/>
<path d="M84.1152 -30.04H84.4944V139.829L84.1152 139.86V-30.04Z" fill="#BFBFBF"/>
<path d="M82.8613 -30.04H83.2405V139.829L82.8613 139.86V-30.04Z" fill="#BFBFBF"/>
<path d="M81.6094 -30.04H81.9885V139.829L81.6094 139.86V-30.04Z" fill="#BFBFBF"/>
<path d="M80.3555 -30.04H80.7346V139.829L80.3555 139.86V-30.04Z" fill="#BFBFBF"/>
<path d="M79.1035 -30.04H79.4827V139.829L79.1035 139.86V-30.04Z" fill="#BFBFBF"/>
<path d="M77.8516 -30.04H78.2307V139.829L77.8516 139.86V-30.04Z" fill="#BFBFBF"/>
<path d="M76.5996 -30.04H76.9787V139.829L76.5996 139.86V-30.04Z" fill="#BFBFBF"/>
<path d="M75.3477 -30.04H75.7268V139.829L75.3477 139.86V-30.04Z" fill="#BFBFBF"/>
<path d="M74.0938 -30.04H74.4729V139.829L74.0938 139.86V-30.04Z" fill="#BFBFBF"/>
<path d="M72.8418 -30.04H73.2209V139.829L72.8418 139.86V-30.04Z" fill="#BFBFBF"/>
<path d="M71.5898 -30.04H71.969V139.829L71.5898 139.86V-30.04Z" fill="#BFBFBF"/>
<path d="M70.3379 -30.04H70.717V139.829L70.3379 139.86V-30.04Z" fill="#BFBFBF"/>
<path d="M69.0859 -30.04H69.4651V139.829L69.0859 139.86V-30.04Z" fill="#BFBFBF"/>
<path d="M67.834 -30.04H68.2131V139.829L67.834 139.86V-30.04Z" fill="#BFBFBF"/>
<path d="M66.582 -30.04H66.9612V139.829L66.582 139.86V-30.04Z" fill="#BFBFBF"/>
<path d="M65.3281 -30.04H65.7073V139.829L65.3281 139.86V-30.04Z" fill="#BFBFBF"/>
<path d="M64.0762 -30.04H64.4553V139.829L64.0762 139.86V-30.04Z" fill="#BFBFBF"/>
<path d="M62.8242 -30.04H63.2034V139.829L62.8242 139.86V-30.04Z" fill="#BFBFBF"/>
<path d="M61.5723 -30.04H61.9514V139.829L61.5723 139.86V-30.04Z" fill="#BFBFBF"/>
<path d="M60.3203 -30.04H60.6995V139.829L60.3203 139.86V-30.04Z" fill="#BFBFBF"/>
<path d="M59.0684 -30.04H59.4475V139.829L59.0684 139.86V-30.04Z" fill="#BFBFBF"/>
<path d="M57.8145 -30.04H58.1936V139.829L57.8145 139.86V-30.04Z" fill="#BFBFBF"/>
<path d="M56.5605 -30.04H56.9397V139.829L56.5605 139.86V-30.04Z" fill="#BFBFBF"/>
<path d="M55.3086 -30.04H55.6877V139.829L55.3086 139.86V-30.04Z" fill="#BFBFBF"/>
<path d="M54.0566 -30.04H54.4358V139.829L54.0566 139.86V-30.04Z" fill="#BFBFBF"/>
<path d="M52.8047 -30.04H53.1838V139.829L52.8047 139.86V-30.04Z" fill="#BFBFBF"/>
<path d="M119.178 -30.04H119.557V139.829L119.178 139.86V-30.04Z" fill="#BFBFBF"/>
<path d="M117.926 -30.04H118.305V139.829L117.926 139.86V-30.04Z" fill="#BFBFBF"/>
<path d="M116.674 -30.04H117.053V139.829L116.674 139.86V-30.04Z" fill="#BFBFBF"/>
<path d="M115.422 -30.04H115.801V139.829L115.422 139.86V-30.04Z" fill="#BFBFBF"/>
<path d="M114.17 -30.04H114.549V139.829L114.17 139.86V-30.04Z" fill="#BFBFBF"/>
<path d="M112.918 -30.04H113.297V139.829L112.918 139.86V-30.04Z" fill="#BFBFBF"/>
<path d="M111.666 -30.04H112.045V139.829L111.666 139.86V-30.04Z" fill="#BFBFBF"/>
<path d="M110.412 -30.04H110.791V139.829L110.412 139.86V-30.04Z" fill="#BFBFBF"/>
<path d="M109.16 -30.04H109.539V139.829L109.16 139.86V-30.04Z" fill="#BFBFBF"/>
<path d="M107.908 -30.04H108.287V139.829L107.908 139.86V-30.04Z" fill="#BFBFBF"/>
<path d="M106.656 -30.04H107.035V139.829L106.656 139.86V-30.04Z" fill="#BFBFBF"/>
<path d="M105.404 -30.04H105.783V139.829L105.404 139.86V-30.04Z" fill="#BFBFBF"/>
<path d="M104.152 -30.04H104.531V139.829L104.152 139.86V-30.04Z" fill="#BFBFBF"/>
<path d="M102.898 -30.04H103.278V139.829L102.898 139.86V-30.04Z" fill="#BFBFBF"/>
<path d="M101.645 -30.04H102.024V139.829L101.645 139.86V-30.04Z" fill="#BFBFBF"/>
<path d="M100.393 -30.04H100.772V139.829L100.393 139.86V-30.04Z" fill="#BFBFBF"/>
<path d="M99.1406 -30.04H99.5198V139.829L99.1406 139.86V-30.04Z" fill="#BFBFBF"/>
<path d="M97.8887 -30.04H98.2678V139.829L97.8887 139.86V-30.04Z" fill="#BFBFBF"/>
<path d="M96.6367 -30.04H97.0159V139.829L96.6367 139.86V-30.04Z" fill="#BFBFBF"/>
<path d="M95.3848 -30.04H95.7639V139.829L95.3848 139.86V-30.04Z" fill="#BFBFBF"/>
<path d="M94.1328 -30.04H94.5119V139.829L94.1328 139.86V-30.04Z" fill="#BFBFBF"/>
<path d="M92.8789 -30.04H93.258V139.829L92.8789 139.86V-30.04Z" fill="#BFBFBF"/>
</g>
</g>
<defs>
<clipPath id="clip0_96_476">
<rect width="120" height="100" fill="white"/>
</clipPath>
</defs>
</svg>
