<svg width="317" height="44" viewBox="0 0 317 44" fill="none" xmlns="http://www.w3.org/2000/svg">
<g clip-path="url(#clip0_225_1527)">
<path d="M295.146 37.941L295.125 37.9326L293.005 32.6403L289.635 24.2384L288.727 21.9722L284.393 11.1655L280.145 0.565918H286.597L290.654 11.1655L292.715 16.5564L294.786 21.9722L298.308 31.1757L301.828 21.9722L305.961 11.1655L310.016 0.565918H316.469L312.222 11.1655L307.889 21.9722L303.61 32.6403L301.404 38.1464L301.185 38.6958L299.306 43.3785H293.366L295.146 37.941Z" fill="#F2F2F2"/>
<path d="M36.3713 32.6403L38.509 37.9743L38.4405 38.1464L36.3413 43.3785H34.227L32.2264 38.1464L30.1205 32.6403L26.0389 21.9722L21.9073 11.1655L20.4761 7.42135L19.0432 11.1655L14.9116 21.9722L10.8317 32.6403L8.72418 38.1464L6.7235 43.3785H0L2.09754 38.1464L4.30364 32.6403L8.58223 21.9722L12.9159 11.1655L17.1628 0.565918H23.5122L27.7607 11.1655L32.0944 21.9722L36.3713 32.6403Z" fill="#F2F2F2"/>
<path d="M122.25 0.550781H150.438V6.37247H128.561V18.445H148.538V24.2049H128.561V37.6252H150.438V43.4469H122.25V0.550781Z" fill="#F2F2F2"/>
<path d="M159.633 0.550781H168.212L181.203 34.868L194.194 0.550781H202.713V43.4469H196.584V11.0302L184.205 43.4469H178.078L165.76 11.0302V43.4469H159.633V0.550781Z" fill="#F2F2F2"/>
<path d="M214.355 0.550781H232.495C239.972 0.550781 244.69 5.75957 244.69 12.0722C244.69 16.7299 242.116 19.5489 240.278 20.8348C242.975 22.3061 246.283 25.3689 246.283 31.0687C246.283 38.2381 240.952 43.4469 233.108 43.4469H214.355V0.550781ZM231.269 18.445C235.62 18.445 238.193 15.6878 238.193 12.3177C238.193 8.64036 235.436 6.19044 231.759 6.19044H220.666V18.4467H231.268L231.269 18.445ZM232.741 37.8089C236.173 37.8089 239.726 35.2354 239.726 30.885C239.726 26.5346 236.478 24.083 232.741 24.083H220.668V37.8106H232.741V37.8089Z" fill="#F2F2F2"/>
<path d="M281.68 38.1734L279.582 43.4039H255.457V0.591309H261.788V38.1734H281.68Z" fill="#F2F2F2"/>
<path d="M63.3593 19.4257L56.3118 17.7707C52.6962 16.9123 50.3682 15.1354 50.3682 12.0108C50.3682 8.27328 53.6164 5.82169 58.6415 5.82169C64.6468 5.82169 67.7715 9.74289 68.4461 12.7456L74.0223 9.80468C72.551 5.147 67.6495 0 58.6415 0C50.3081 0 43.9336 4.71781 43.9336 12.1344C43.9336 18.8746 48.4677 22.3682 54.9023 23.8996L61.6425 25.5546C65.6255 26.5349 67.8934 28.4354 67.8934 31.56C67.8934 34.9301 65.2581 38.0564 58.3943 38.0564C52.6928 38.0564 48.4343 34.8733 47.1601 30.8286L44.2559 38.1048C47.0331 41.3246 51.6558 44.0017 58.2724 44.0017C68.9355 44.0017 74.4499 38.2418 74.4499 31.4398C74.4499 25.6181 70.8961 21.2677 63.3576 19.429L63.3593 19.4257Z" fill="#F2F2F2"/>
<path d="M102.273 19.4257L95.2258 17.7707C91.6102 16.9123 89.2822 15.1354 89.2822 12.0108C89.2822 8.27328 92.5304 5.82169 97.5555 5.82169C103.561 5.82169 106.686 9.74289 107.36 12.7456L112.936 9.80468C111.465 5.147 106.564 0 97.5555 0C89.2221 0 82.8477 4.71781 82.8477 12.1344C82.8477 18.8746 87.3818 22.3682 93.8163 23.8996L100.557 25.5546C104.54 26.5349 106.807 28.4354 106.807 31.56C106.807 34.9301 104.172 38.0564 97.3084 38.0564C91.6052 38.0564 87.3467 34.8733 86.0725 30.8252L83.1683 38.1032C85.9455 41.323 90.5682 44.0017 97.1848 44.0017C107.848 44.0017 113.362 38.2418 113.362 31.4398C113.362 25.6181 109.808 21.2677 102.27 19.429L102.273 19.4257Z" fill="#F2F2F2"/>
</g>
<defs>
<clipPath id="clip0_225_1527">
<rect width="316.469" height="44" fill="white"/>
</clipPath>
</defs>
</svg>
