<svg width="290" height="44" viewBox="0 0 290 44" fill="none" xmlns="http://www.w3.org/2000/svg">
<g clip-path="url(#clip0_225_1409)">
<path d="M0 22.0008C0 9.62131 8.82397 0 21.5714 0C30.7016 0 37.5664 4.84062 40.814 12.0732L35.1144 15.1377C32.9089 9.92926 28.0666 6.25219 21.5714 6.25219C12.4411 6.25219 6.5568 13.3 6.5568 22.0008C6.5568 30.7016 12.501 37.7495 21.5714 37.7495C28.2514 37.7495 33.2151 33.8277 35.3591 28.3129L40.9971 31.3159C37.9326 38.8531 30.9463 44.0017 21.5714 44.0017C8.82397 44 0 34.3171 0 22.0008Z" fill="#F2F2F2"/>
<path d="M49.2695 0.550781H66.245C74.9474 0.550781 80.4622 6.43343 80.4622 13.6045C80.4622 19.7318 76.7851 24.2678 71.5151 26.1055L81.5042 37.7493V43.4488H75.069V39.4039L64.4672 26.9644H55.5201V43.4488H49.2695V0.550781ZM66.1834 21.2033C70.9641 21.2033 73.9653 17.8941 73.9653 13.6661C73.9653 9.43801 70.8392 6.31191 66.1834 6.31191H55.5201V21.2033H66.1834Z" fill="#F2F2F2"/>
<path d="M173.609 6.43587H162.196L159.881 0.553223H193.77V6.43587H180.044V43.4496H173.609V6.43587Z" fill="#F2F2F2"/>
<path d="M201.551 0.550781H207.924V43.4472H201.551V0.550781Z" fill="#F2F2F2"/>
<path d="M158.37 32.6824L160.499 37.9991L160.431 38.1706L158.34 43.3857H156.233L154.237 38.1706L152.138 32.6824L148.071 22.0491L143.952 11.2775L142.525 7.54553L141.098 11.2775L136.979 22.0491L132.912 32.6824L130.813 38.1706L128.817 43.3857H122.117L124.208 38.1706L126.405 32.6824L130.67 22.0491L134.989 11.2775L139.224 0.712402H145.553L149.786 11.2775L154.106 22.0491L158.37 32.6824Z" fill="#F2F2F2"/>
<path d="M220.767 0.546076L222.763 5.76122L224.862 11.2494L228.929 21.8827L233.049 32.6543L234.475 36.3863L235.902 32.6543L240.022 21.8827L244.088 11.2494L246.187 5.76122L248.183 0.546076H254.883L252.792 5.76122L250.595 11.2494L246.33 21.8827L242.011 32.6543L237.776 43.2194H231.447L227.214 32.6543L222.895 21.8827L218.63 11.2494L214.299 0.516113L220.767 0.546076Z" fill="#F2F2F2"/>
<path d="M145.549 0.682129L160.53 37.9689" stroke="#00FFFF" stroke-width="0.0416147" stroke-miterlimit="10"/>
<path d="M118.272 37.9457V37.6261H96.3941V24.2062H116.371V18.4451H96.3941V6.3735H118.272V0.550781H90.082V43.4488H116.066L118.272 37.9457Z" fill="#F2F2F2"/>
<path d="M289.18 6.3735V0.550781H264.106L260.99 8.32606V43.4488H289.18V37.6261H267.302V24.2062H287.281V18.4451H267.302V6.3735H289.18Z" fill="#F2F2F2"/>
</g>
<defs>
<clipPath id="clip0_225_1409">
<rect width="289.182" height="44" fill="white"/>
</clipPath>
</defs>
</svg>
