<svg width="1728" height="73" viewBox="0 0 1728 73" fill="none" xmlns="http://www.w3.org/2000/svg">
<g clip-path="url(#clip0_225_1539)">
<path d="M32.4697 0H43.3497L14.0497 72.85L3.17969 72.86L32.4697 0Z" fill="white"/>
<path d="M59.6494 0H70.5294L41.2294 72.85L30.3594 72.86L59.6494 0Z" fill="white"/>
<path d="M5.3 0H16.17L-13.13 72.85L-24 72.86L5.3 0Z" fill="white"/>
<path d="M113.88 0H124.75L95.4501 72.85L84.5801 72.86L113.88 0Z" fill="white"/>
<path d="M141.06 0H151.93L122.63 72.85L111.76 72.86L141.06 0Z" fill="white"/>
<path d="M86.7004 0H97.5704L68.2704 72.85L57.4004 72.86L86.7004 0Z" fill="white"/>
<path d="M195.28 0H206.15L176.85 72.85L165.98 72.86L195.28 0Z" fill="white"/>
<path d="M222.46 0H233.33L204.03 72.85L193.16 72.86L222.46 0Z" fill="white"/>
<path d="M168.101 0H178.971L149.671 72.85L138.801 72.86L168.101 0Z" fill="white"/>
<path d="M276.681 0H287.551L258.251 72.85L247.381 72.86L276.681 0Z" fill="white"/>
<path d="M303.861 0H314.731L285.431 72.85L274.561 72.86L303.861 0Z" fill="white"/>
<path d="M249.499 0H260.369L231.069 72.85L220.199 72.86L249.499 0Z" fill="white"/>
<path d="M358.081 0H368.951L339.661 72.85L328.781 72.86L358.081 0Z" fill="white"/>
<path d="M385.261 0H396.131L366.841 72.85L355.961 72.86L385.261 0Z" fill="white"/>
<path d="M330.9 0H341.77L312.48 72.85L301.6 72.86L330.9 0Z" fill="white"/>
<path d="M439.48 0H450.35L421.06 72.85L410.18 72.86L439.48 0Z" fill="white"/>
<path d="M466.659 0H477.529L448.239 72.85L437.359 72.86L466.659 0Z" fill="white"/>
<path d="M412.3 0H423.17L393.88 72.85L383 72.86L412.3 0Z" fill="white"/>
<path d="M520.88 0H531.75L502.46 72.85L491.59 72.86L520.88 0Z" fill="white"/>
<path d="M548.06 0H558.93L529.64 72.85L518.77 72.86L548.06 0Z" fill="white"/>
<path d="M493.7 0H504.57L475.28 72.85L464.41 72.86L493.7 0Z" fill="white"/>
<path d="M602.278 0H613.148L583.858 72.85L572.988 72.86L602.278 0Z" fill="white"/>
<path d="M629.462 0H640.332L611.042 72.85L600.172 72.86L629.462 0Z" fill="white"/>
<path d="M575.099 0H585.969L556.679 72.85L545.809 72.86L575.099 0Z" fill="white"/>
<path d="M683.681 0H694.561L665.261 72.85L654.391 72.86L683.681 0Z" fill="white"/>
<path d="M710.86 0H721.73L692.44 72.85L681.57 72.86L710.86 0Z" fill="white"/>
<path d="M656.501 0H667.371L638.081 72.85L627.211 72.86L656.501 0Z" fill="white"/>
<path d="M765.079 0H775.959L746.659 72.85L735.789 72.86L765.079 0Z" fill="white"/>
<path d="M792.259 0H803.139L773.839 72.85L762.969 72.86L792.259 0Z" fill="white"/>
<path d="M737.899 0H748.779L719.479 72.85L708.609 72.86L737.899 0Z" fill="white"/>
<path d="M846.491 0H857.361L828.061 72.85L817.191 72.86L846.491 0Z" fill="white"/>
<path d="M873.661 0H884.541L855.241 72.85L844.371 72.86L873.661 0Z" fill="white"/>
<path d="M819.302 0H830.182L800.882 72.85L790.012 72.86L819.302 0Z" fill="white"/>
<path d="M927.89 0H938.76L909.46 72.85L898.59 72.86L927.89 0Z" fill="white"/>
<path d="M955.07 0H965.94L936.64 72.85L925.77 72.86L955.07 0Z" fill="white"/>
<path d="M900.71 0H911.58L882.28 72.85L871.41 72.86L900.71 0Z" fill="white"/>
<path d="M1009.29 0H1020.16L990.858 72.85L979.988 72.86L1009.29 0Z" fill="white"/>
<path d="M1036.47 0H1047.34L1018.04 72.85L1007.17 72.86L1036.47 0Z" fill="white"/>
<path d="M982.109 0H992.979L963.679 72.85L952.809 72.86L982.109 0Z" fill="white"/>
<path d="M1090.69 0H1101.56L1072.27 72.85L1061.39 72.86L1090.69 0Z" fill="white"/>
<path d="M1117.87 0H1128.74L1099.44 72.85L1088.57 72.86L1117.87 0Z" fill="white"/>
<path d="M1063.51 0H1074.38L1045.09 72.85L1034.21 72.86L1063.51 0Z" fill="white"/>
<path d="M1172.09 0H1182.96L1153.67 72.85L1142.79 72.86L1172.09 0Z" fill="white"/>
<path d="M1199.27 0H1210.14L1180.85 72.85L1169.97 72.86L1199.27 0Z" fill="white"/>
<path d="M1144.91 0H1155.78L1126.49 72.85L1115.61 72.86L1144.91 0Z" fill="white"/>
<path d="M1253.49 0H1264.36L1235.07 72.85L1224.19 72.86L1253.49 0Z" fill="white"/>
<path d="M1280.67 0H1291.54L1262.25 72.85L1251.37 72.86L1280.67 0Z" fill="white"/>
<path d="M1226.31 0H1237.18L1207.89 72.85L1197.02 72.86L1226.31 0Z" fill="white"/>
<path d="M1334.89 0H1345.76L1316.47 72.85L1305.6 72.86L1334.89 0Z" fill="white"/>
<path d="M1362.07 0H1372.94L1343.65 72.85L1332.78 72.86L1362.07 0Z" fill="white"/>
<path d="M1307.71 0H1318.58L1289.29 72.85L1278.42 72.86L1307.71 0Z" fill="white"/>
<path d="M1416.29 0H1427.16L1397.87 72.85L1387 72.86L1416.29 0Z" fill="white"/>
<path d="M1443.47 0H1454.34L1425.05 72.85L1414.18 72.86L1443.47 0Z" fill="white"/>
<path d="M1389.11 0H1399.98L1370.69 72.85L1359.82 72.86L1389.11 0Z" fill="white"/>
<path d="M1497.69 0H1508.56L1479.27 72.85L1468.4 72.86L1497.69 0Z" fill="white"/>
<path d="M1524.87 0H1535.74L1506.45 72.85L1495.58 72.86L1524.87 0Z" fill="white"/>
<path d="M1470.51 0H1481.39L1452.09 72.85L1441.22 72.86L1470.51 0Z" fill="white"/>
<path d="M1579.09 0H1589.97L1560.67 72.85L1549.8 72.86L1579.09 0Z" fill="white"/>
<path d="M1606.27 0H1617.15L1587.85 72.85L1576.98 72.86L1606.27 0Z" fill="white"/>
<path d="M1551.91 0H1562.79L1533.49 72.85L1522.62 72.86L1551.91 0Z" fill="white"/>
<path d="M1660.5 0H1671.37L1642.07 72.85L1631.2 72.86L1660.5 0Z" fill="white"/>
<path d="M1687.67 0H1698.55L1669.25 72.85L1658.38 72.86L1687.67 0Z" fill="white"/>
<path d="M1633.32 0H1644.19L1614.89 72.85L1604.02 72.86L1633.32 0Z" fill="white"/>
<path d="M1741.9 0H1752.77L1723.47 72.85L1712.6 72.86L1741.9 0Z" fill="white"/>
<path d="M1714.72 0H1725.59L1696.29 72.85L1685.42 72.86L1714.72 0Z" fill="white"/>
</g>
<defs>
<clipPath id="clip0_225_1539">
<rect width="1776.77" height="72.86" fill="white" transform="translate(-24)"/>
</clipPath>
</defs>
</svg>
