<svg width="285" height="78" viewBox="0 0 285 78" fill="none" xmlns="http://www.w3.org/2000/svg">
<g clip-path="url(#clip0_225_1606)">
<path d="M267.573 1.99727H264.668V0.125977H272.438V1.99727H269.56V9.53705H267.573V1.99727ZM274.018 0.125977H276.551L279.199 7.17443L281.846 0.125977H284.379V9.53402H282.48V3.43487L280.209 9.53402H278.164L275.92 3.43487V9.53402H274.021V0.125977H274.018Z" fill="#F2F2F2"/>
<path d="M247.129 0.125977V77.8773H236.46L235.629 76.652L230.024 68.3783L223.248 58.3788L210.125 39.0016L196.829 19.3788L196.629 19.0785V77.8773H185.131V28.7777L188.901 19.3788L191.849 12.021L196.495 0.426233L196.629 0.626404L209.33 19.3788L222.624 39.0016L235.629 58.1968V58.3788H235.75L235.629 58.1968V0.125977H247.129Z" fill="#F2F2F2"/>
<path d="M143.394 67.9961L143.357 67.987L139.509 58.3788L133.388 43.1173L131.738 39.0016L123.868 19.3788L116.152 0.125977H127.871L135.238 19.3788L138.984 29.166L142.742 39.0016L149.138 55.7159L155.531 39.0016L163.038 19.3788L170.402 0.125977H182.124L174.408 19.3788L166.538 39.0016L158.768 58.3788L154.761 68.3783L154.364 69.373L150.952 77.8773H140.164L143.394 67.9961Z" fill="#F2F2F2"/>
<path d="M122 58.3788L125.879 68.0628L125.755 68.3783L121.942 77.8773H118.103L114.469 68.3783L110.645 58.3788L103.232 39.0016L95.7289 19.3788L93.1297 12.576L90.5275 19.3788L83.0241 39.0016L75.6147 58.3788L71.7872 68.3783L68.1538 77.8773H55.9434L59.7527 68.3783L63.7591 58.3788L71.5294 39.0016L79.3998 19.3788L87.1124 0.125977H98.6435L106.359 19.3788L114.23 39.0016L122 58.3788Z" fill="#F2F2F2"/>
<path d="M47.7584 68.3783L43.946 77.8773H0.132812V0.125977H11.6336V68.3783H47.7584Z" fill="#F2F2F2"/>
</g>
<defs>
<clipPath id="clip0_225_1606">
<rect width="284.373" height="78" fill="white"/>
</clipPath>
</defs>
</svg>
